<svg width="200" height="200" viewBox="0 0 200 200" stroke="#354c3c" fill="none" stroke-width="1.5" stroke-linecap="round" stroke-linejoin="round"  xmlns="http://www.w3.org/2000/svg">
    <path fill="#9b461f" stroke="none" transform="translate(1,-3)" d="m70.062 98.54-.352-.767m0 0C48.693 84.578 44.373 73.843 47.715 49.76c23.376 3.958 34.468 8.647 42.767 31.111-.716-18.425 6.36-25.968 25.815-36.872 10.272 15.942 10.455 25.635 1.541 44.17 17.308-13.676 27.777-15.382 48.162-5.378-15.1 23.283-25.566 28.69-46.621 29.191 19.671 9.502 22.776 19.22 24.274 38.792-25.341-4.837-36.348-10.643-43.924-32.647-3.776 19.736-12.435 27.384-35.832 36.872-2.596-16.282-.626-24.635 14.641-36.872-16.072 8.733-25.578 9.428-43.538 2.305 8.26-14.079 14.511-20.37 34.71-22.66Z"/><path d="m70.062 98.54-.352-.767m0 0C48.693 84.578 44.373 73.843 47.715 49.76c23.376 3.958 34.468 8.647 42.767 31.111-.716-18.425 6.36-25.968 25.815-36.872 10.272 15.942 10.455 25.635 1.541 44.17 17.308-13.676 27.777-15.382 48.162-5.378-15.1 23.283-25.566 28.69-46.621 29.191 19.671 9.502 22.776 19.22 24.274 38.792-25.341-4.837-36.348-10.643-43.924-32.647-3.776 19.736-12.435 27.384-35.832 36.872-2.596-16.282-.626-24.635 14.641-36.872-16.072 8.733-25.578 9.428-43.538 2.305 8.26-14.079 14.511-20.37 34.71-22.66Z"/>
</svg>